<?xml version="1.0" standalone="no"?><!DOCTYPE svg PUBLIC "-//W3C//DTD SVG 1.1//EN" "http://www.w3.org/Graphics/SVG/1.1/DTD/svg11.dtd"><svg t="1493946683164" class="icon" style="" viewBox="0 0 1024 1024" version="1.1" xmlns="http://www.w3.org/2000/svg" p-id="5570" xmlns:xlink="http://www.w3.org/1999/xlink" width="16" height="16"><defs><style type="text/css"></style></defs><path d="M902 857.3h-95.3V216c0-28.7-23.3-52-52-52h-104c-28.7 0-52 23.3-52 52v156h-104V216c0-28.7-23.3-52-52-52H269.3c-28.7 0-52 23.3-52 52v641.3H122c-9.6 0-17.3 7.8-17.3 17.3S112.4 892 122 892h780c9.6 0 17.3-7.8 17.3-17.3s-7.7-17.4-17.3-17.4zM633.3 354.7H772V684H633.3V354.7z m0-138.7c0-9.6 7.8-17.3 17.3-17.3h104c9.6 0 17.3 7.8 17.3 17.3v104H633.3V216z m-34.6 190.7v450.7h-104V406.7h104zM252 857.3V216c0-9.6 7.8-17.3 17.3-17.3h173.3c9.6 0 17.3 7.8 17.3 17.3v641.3H252z m381.3 0V718.7H772v138.7H633.3z" p-id="5571" fill="#42bd56"></path></svg>