<?xml version="1.0" standalone="no"?><!DOCTYPE svg PUBLIC "-//W3C//DTD SVG 1.1//EN" "http://www.w3.org/Graphics/SVG/1.1/DTD/svg11.dtd"><svg t="1493946993946" class="icon" style="" viewBox="0 0 1024 1024" version="1.1" xmlns="http://www.w3.org/2000/svg" p-id="7975" xmlns:xlink="http://www.w3.org/1999/xlink" width="16" height="16"><defs><style type="text/css"></style></defs><path d="M867.305 85.582h-79.533c-36.586 0-66.261 35.542-66.261 79.457v689.234c0 44.026 29.674 79.644 66.26 79.644h79.534c36.624 0 66.3-35.618 66.3-79.644V165.04c0-43.914-29.675-79.457-66.3-79.457zM827.54 847.85c-29.3 0-52.998-23.884-52.998-53.035 0-29.338 23.697-53.03 52.998-53.03 29.261 0 53.03 23.693 53.03 53.03 0 29.15-23.769 53.035-53.03 53.035z m53.03-391.115c0 18.279-14.837 33.116-33.149 33.116h-39.762c-18.313 0-33.115-14.837-33.115-33.116V171.73c0-18.389 14.803-33.226 33.115-33.226h39.762c18.312 0 33.15 14.837 33.15 33.226v285.005zM549.184 85.582H469.65c-36.586 0-66.26 35.542-66.26 79.457v689.234c0 44.026 29.674 79.644 66.26 79.644h79.534c36.624 0 66.299-35.618 66.299-79.644V165.04c0-43.914-29.674-79.457-66.3-79.457zM509.418 847.85c-29.3 0-52.997-23.884-52.997-53.035a52.867 52.867 0 0 1 52.997-53.03c29.262 0 53.031 23.544 53.031 53.03 0 29.15-23.77 53.035-53.03 53.035z m53.031-391.115c0 18.279-14.837 33.039-33.15 33.039h-39.763c-18.312 0-33.115-14.761-33.115-33.039V171.73c0-18.461 14.803-33.226 33.115-33.226H529.3c18.313 0 33.15 14.765 33.15 33.226v285.005zM231.063 85.582h-79.534c-36.586 0-66.261 35.542-66.261 79.457v689.234c0 44.026 29.674 79.644 66.261 79.644h79.534c36.624 0 66.188-35.618 66.188-79.644V165.04c0-43.914-29.563-79.457-66.188-79.457zM191.297 847.85c-29.227 0-52.997-23.884-52.997-53.035 0-29.338 23.77-53.03 52.997-53.03 29.261 0 53.03 23.693 53.03 53.03 0 29.15-23.769 53.035-53.03 53.035z m53.03-391.115c0 18.279-14.836 33.116-33.148 33.116h-39.763c-18.313 0-33.115-14.837-33.115-33.116V171.73c0-18.389 14.803-33.226 33.115-33.226h39.763c18.312 0 33.149 14.837 33.149 33.226v285.005z" p-id="7976" fill="#42bd56"></path></svg>