<?xml version="1.0" standalone="no"?><!DOCTYPE svg PUBLIC "-//W3C//DTD SVG 1.1//EN" "http://www.w3.org/Graphics/SVG/1.1/DTD/svg11.dtd"><svg t="1493947160099" class="icon" style="" viewBox="0 0 1024 1024" version="1.1" xmlns="http://www.w3.org/2000/svg" p-id="9339" xmlns:xlink="http://www.w3.org/1999/xlink" width="16" height="16"><defs><style type="text/css"></style></defs><path d="M972.420741 511.89164c0 254.356543-206.172557 460.529101-460.529101 460.529101-254.356543 0-460.529101-206.172557-460.529101-460.529101 0-254.356543 206.172557-460.529101 460.529101-460.529101C766.248183 51.36254 972.420741 257.535097 972.420741 511.89164zM511.89164 97.09037c-229.108713 0-414.80127 185.728677-414.80127 414.80127s185.728677 414.80127 414.80127 414.80127 414.80127-185.728677 414.80127-414.80127S741.000353 97.09037 511.89164 97.09037zM309.150476 672.805926l32.724656 32.724656 193.169383-193.530582 0 0L535.044515 152.389982l-46.26963 0 0 340.827654L309.150476 672.805926z" p-id="9340" fill="#42bd56"></path></svg>