<?xml version="1.0" standalone="no"?><!DOCTYPE svg PUBLIC "-//W3C//DTD SVG 1.1//EN" "http://www.w3.org/Graphics/SVG/1.1/DTD/svg11.dtd"><svg t="1493946364560" class="icon" style="" viewBox="0 0 1024 1024" version="1.1" xmlns="http://www.w3.org/2000/svg" p-id="3165" xmlns:xlink="http://www.w3.org/1999/xlink" width="16" height="16"><defs><style type="text/css"></style></defs><path d="M370.688 102.4 200.192 102.4C140.288 102.4 92.16 150.528 92.16 210.432l0 170.496c0 59.392 48.128 108.032 108.032 108.032l170.496 0c59.392 0 108.032-48.128 108.032-108.032L478.72 210.432C478.72 150.528 430.592 102.4 370.688 102.4z" p-id="3166" fill="#42bd56"></path><path d="M370.688 552.96 200.192 552.96c-59.392 0-108.032 48.128-108.032 108.032l0 170.496c0 59.392 48.128 108.032 108.032 108.032l170.496 0c59.392 0 108.032-48.128 108.032-108.032l0-170.496C478.72 601.088 430.592 552.96 370.688 552.96z" p-id="3167" fill="#42bd56"></path><path d="M943.104 219.136l-120.832-120.832c-41.984-41.984-110.592-41.984-152.576 0l-120.832 120.832c-41.984 41.984-41.984 110.592 0 152.576l120.832 120.832c41.984 41.984 110.592 41.984 152.576 0l120.832-120.832C985.6 329.728 985.6 261.632 943.104 219.136z" p-id="3168" fill="#42bd56"></path><path d="M831.488 552.96l-170.496 0c-59.392 0-108.032 48.128-108.032 108.032l0 170.496c0 59.392 48.128 108.032 108.032 108.032l170.496 0c59.392 0 108.032-48.128 108.032-108.032l0-170.496C939.52 601.088 891.392 552.96 831.488 552.96z" p-id="3169" fill="#42bd56"></path></svg>