<?xml version="1.0" standalone="no"?><!DOCTYPE svg PUBLIC "-//W3C//DTD SVG 1.1//EN" "http://www.w3.org/Graphics/SVG/1.1/DTD/svg11.dtd"><svg t="1494495495336" class="icon" style="" viewBox="0 0 1024 1024" version="1.1" xmlns="http://www.w3.org/2000/svg" p-id="3907" xmlns:xlink="http://www.w3.org/1999/xlink" width="16" height="16"><defs><style type="text/css"></style></defs><path d="M303.104 342.016l65.536 0 0 40.96-65.536 0 0-40.96Z" p-id="3908" fill="#42bd56"></path><path d="M401.408 342.016l311.296 0 0 40.96-311.296 0 0-40.96Z" p-id="3909" fill="#42bd56"></path><path d="M303.104 512l65.536 0 0 40.96-65.536 0 0-40.96Z" p-id="3910" fill="#42bd56"></path><path d="M401.408 512l311.296 0 0 40.96-311.296 0 0-40.96Z" p-id="3911" fill="#42bd56"></path><path d="M303.104 681.984l65.536 0 0 40.96-65.536 0 0-40.96Z" p-id="3912" fill="#42bd56"></path><path d="M401.408 681.984l311.296 0 0 40.96-311.296 0 0-40.96Z" p-id="3913" fill="#42bd56"></path><path d="M344.064 129.024c-90.112 0-163.84 73.728-163.84 163.84l0 600.064 497.664 0c90.112 0 163.84-73.728 163.84-163.84L841.728 129.024 344.064 129.024zM802.816 731.136c0 67.584-55.296 122.88-122.88 122.88L221.184 854.016 221.184 292.864c0-67.584 55.296-122.88 122.88-122.88l456.704 0L800.768 731.136z" p-id="3914" fill="#42bd56"></path></svg>