<?xml version="1.0" standalone="no"?><!DOCTYPE svg PUBLIC "-//W3C//DTD SVG 1.1//EN" "http://www.w3.org/Graphics/SVG/1.1/DTD/svg11.dtd"><svg t="1493956816035" class="icon" style="" viewBox="0 0 1024 1024" version="1.1" xmlns="http://www.w3.org/2000/svg" p-id="29236" xmlns:xlink="http://www.w3.org/1999/xlink" width="16" height="16"><defs><style type="text/css"></style></defs><path d="M677.888 717.1072c226.2528-39.4496 344.2176-310.656 344.2176-553.728h-185.6512c10.9824-78.3872 17.8432-141.4656 17.8432-163.3792H172.6208c3.7888 41.9072 8.9344 99.4816 15.9744 163.3792H1.8688c0 246.3744 119.5776 517.1712 350.6176 554.368 36.6592 47.0528 63.8976 66.688 95.0016 77.44v54.5024h-131.9168L216.6016 1024h593.7152l-98.944-174.3104h-131.9424v-54.5024c28.5184-7.2448 65.28-37.888 98.4576-78.08z m66.4576-107.0592c28.2368-65.7664 60.3136-236.032 82.5344-381.312h68.736c0 204.9024-89.4208 357.8112-154.8032 389.0432 1.152-2.5856 2.432-5.1712 3.5328-7.7312zM128.64 228.7616h67.6096c18.176 146.0736 46.1568 307.6352 89.4208 389.248-66.2784-30.6176-157.0304-184.3712-157.0304-389.248z m369.4336 319.7952c-35.84 0-64.7168-5.9136-86.6304-17.7664v-64.128c23.2448 17.408 50.4064 26.112 81.4592 26.112 19.6608 0 35.2512-4.352 46.7968-13.056s17.3312-21.0688 17.3312-37.12c0-16.512-6.8864-29.1072-20.5824-37.8112-13.7472-8.704-32.9728-13.056-57.728-13.056h-31.0528v-56.0128h28.5696c46.7968 0 70.1952-15.744 70.1952-47.2576 0-29.696-17.92-44.544-53.7856-44.544-23.3984 0-46.1312 7.6544-68.1728 22.9376V206.7712c24.0128-12.4416 52.2752-18.6624 84.8128-18.6624 32.9984 0 59.776 7.6032 80.3328 22.8352s30.8224 36.3264 30.8224 63.3344c0 45.5936-23.0912 74.24-69.2992 85.9392v1.1264c24.2944 2.688 43.7248 11.5968 58.2656 26.6752s21.8368 33.408 21.8368 55.0144c0 33.152-12.1344 59.0336-36.3264 77.6192-24.2176 18.5856-56.4992 27.904-96.8448 27.904z" fill="#c85e43" p-id="29237"></path></svg>