<?xml version="1.0" standalone="no"?><!DOCTYPE svg PUBLIC "-//W3C//DTD SVG 1.1//EN" "http://www.w3.org/Graphics/SVG/1.1/DTD/svg11.dtd"><svg t="1495436371399" class="icon" style="" viewBox="0 0 1024 1024" version="1.1" xmlns="http://www.w3.org/2000/svg" p-id="8052" xmlns:xlink="http://www.w3.org/1999/xlink" width="16" height="16"><defs><style type="text/css"></style></defs><path d="M841.094108 0 182.837643 0C81.966409 0 0 82.034657 0 182.837643l0 658.256465c0 100.871234 81.966409 182.837643 182.837643 182.837643l658.256465 0c100.871234 0 182.837643-81.966409 182.837643-182.837643L1023.931752 182.837643C1023.931752 82.034657 941.965343 0 841.094108 0zM182.837643 73.162357l658.256465 0c60.468142 0 109.743535 49.207145 109.743535 109.743535l0 315.512663c-32.96401-30.302319-118.820581-102.782191-186.181818-102.099707C680.095974 397.13783 606.38763 623.927486 512 621.06105 439.588376 618.808851 342.061317 527.492402 234.023994 539.026393 188.161024 543.940283 108.856305 635.597974 73.162357 679.618235L73.162357 182.837643C73.162357 122.369501 122.369501 73.162357 182.837643 73.162357z" p-id="8053" fill="#42bd56"></path><path d="M269.717942 268.01173m-101.280725 0a1.484 1.484 0 1 0 202.56145 0 1.484 1.484 0 1 0-202.56145 0Z" p-id="8054" fill="#42bd56"></path></svg>