<?xml version="1.0" standalone="no"?><!DOCTYPE svg PUBLIC "-//W3C//DTD SVG 1.1//EN" "http://www.w3.org/Graphics/SVG/1.1/DTD/svg11.dtd"><svg t="1493947827826" class="icon" style="" viewBox="0 0 1024 1024" version="1.1" xmlns="http://www.w3.org/2000/svg" p-id="12994" xmlns:xlink="http://www.w3.org/1999/xlink" width="16" height="16"><defs><style type="text/css"></style></defs><path d="M510.692726 587.444273c-60.502979 0-117.384477-23.560602-160.166863-66.342987s-66.344011-99.662861-66.344011-160.16584 23.561625-117.384477 66.344011-160.166863c42.782386-42.782386 99.663884-66.342987 160.166863-66.342987s117.384477 23.560602 160.166863 66.344011c42.782386 42.782386 66.342987 99.663884 66.342987 160.166863s-23.560602 117.383454-66.342987 160.16584S571.195705 587.444273 510.692726 587.444273zM510.692726 195.823967c-91.043552 0-165.112502 74.068949-165.112502 165.111478 0 91.042529 74.068949 165.110455 165.112502 165.110455 91.042529 0 165.111478-74.067926 165.111478-165.110455C675.804205 269.891893 601.735255 195.823967 510.692726 195.823967z" p-id="12995" fill="#42bd56"></path><path d="M818.89618 898.169153c-16.954137 0-30.699186-13.745049-30.699186-30.699186 0-40.149419-8.391111-78.859046-24.941042-115.050316-7.05058-15.418154-0.267083-33.634028 15.153118-40.685631s33.634028-0.26606 40.685631 15.153118c20.23895 44.261063 30.501688 91.560322 30.501688 140.582829C849.595366 884.424104 835.850317 898.169153 818.89618 898.169153z" p-id="12996" fill="#42bd56"></path><path d="M203.494159 898.169153c-16.954137 0-30.699186-13.745049-30.699186-30.699186 0-45.670156 8.951883-89.989547 26.605961-131.729184 17.045211-40.300868 41.440831-76.487022 72.509431-107.554598 31.068599-31.068599 67.254753-55.464219 107.554598-72.509431 41.739637-17.654079 86.060051-26.605961 131.730207-26.605961 58.059324 0 115.349121 14.96176 165.674297 43.268456 14.777565 8.311293 20.018939 27.02961 11.706623 41.806151-8.311293 14.777565-27.02961 20.019962-41.806151 11.706623-41.155329-23.14821-88.036056-35.383882-135.574768-35.383882-152.739706 0-277.002848 124.263142-277.002848 277.001825C234.193345 884.424104 220.448296 898.169153 203.494159 898.169153z" p-id="12997" fill="#42bd56"></path><path d="M280.361851 573.344137c-101.463879 0-184.010921-82.547041-184.010921-184.010921 0-101.464903 82.547041-184.012967 184.010921-184.012967l0 61.398372c-67.608817 0-122.612549 55.004755-122.612549 122.614595 0 67.608817 55.003731 122.612549 122.612549 122.612549L280.361851 573.344137z" p-id="12998" fill="#42bd56"></path><path d="M39.835775 816.632115c-16.954137 0-30.699186-13.745049-30.699186-30.699186 0-72.551386 28.253484-140.761907 79.554894-192.063317s119.511931-79.555917 192.063317-79.555917c16.954137 0 30.699186 13.745049 30.699186 30.699186s-13.745049 30.699186-30.699186 30.699186c-115.916033 0-210.219839 94.304829-210.219839 210.221886C70.534961 802.88809 56.789912 816.632115 39.835775 816.632115z" p-id="12999" fill="#42bd56"></path><path d="M747.740584 573.344137l0-61.398372c67.608817 0 122.612549-55.003731 122.612549-122.612549 0-67.609841-55.003731-122.614595-122.612549-122.614595l0-61.398372c101.463879 0 184.010921 82.547041 184.010921 184.012967C931.751504 490.797096 849.204463 573.344137 747.740584 573.344137z" p-id="13000" fill="#42bd56"></path><path d="M988.266659 816.632115c-16.954137 0-30.699186-13.745049-30.699186-30.699186 0-115.916033-94.303806-210.221886-210.220862-210.221886-16.954137 0-30.699186-13.745049-30.699186-30.699186s13.745049-30.699186 30.699186-30.699186c72.551386 0 140.761907 28.253484 192.063317 79.555917s79.554894 119.511931 79.554894 192.063317C1018.965845 802.88809 1005.220796 816.632115 988.266659 816.632115z" p-id="13001" fill="#42bd56"></path></svg>