<?xml version="1.0" standalone="no"?><!DOCTYPE svg PUBLIC "-//W3C//DTD SVG 1.1//EN" "http://www.w3.org/Graphics/SVG/1.1/DTD/svg11.dtd"><svg t="1493947479851" class="icon" style="" viewBox="0 0 1024 1024" version="1.1" xmlns="http://www.w3.org/2000/svg" p-id="10883" xmlns:xlink="http://www.w3.org/1999/xlink" width="16" height="16"><defs><style type="text/css"></style></defs><path d="M935.822217 235.408521l0-6.987135c0 0-113.972774-62.443168-317.903374-15.72003-4.52199 1.004887-13.537318 4.803399-16.59291 6.113231-20.74344 1.746784-24.019043-20.305465-15.721053-31.659047 5.894244-5.677303 10.917654-6.332219 10.917654-6.332219s177.87313-60.989049 351.962074 11.208273c16.309454 8.16189 20.521383 13.111622 24.453948 20.390399 0.37146 2.885723 0 5.234211 0 6.836709 0 1.601474 0 589.951373 0 589.951373l0 8.738012c0 0-9.604752 24.452925-32.895201 9.31618-68.851111-46.442752-296.361755-32.468482-390.249075 4.943592-23.593348 0.824785-0.87288 2.762927-47.597041 0-48.470945-22.128997-285.58941-64.920592-390.82929-5.535063-13.06148 5.474688-24.452925 8.733918-32.750915-9.605775 2.619664-28.385491 0-590.973656 0-590.973656l0-14.266935c0 0 1.746784-10.04375 10.479679-13.100366 8.734942-3.056616 192.140065-93.449345 444.104657-0.873903 18.340717 9.606799 24.01802 12.227486 29.258371 20.087501 1.459235 2.25639 1.541099 6.173606 0.873903 10.916631-1.309832 6.113231-0.291642 483.691257-0.291642 483.691257l-0.36225 13.468756c0 0-18.395976 31.005155-36.817534-1.746784 0.135076-8.295943-0.083911-11.353582-0.083911-11.353582l0-475.980645c0 0-195.634656-88.427982-410.479839-8.515954-0.873903 206.113311 0.87288 552.839127 0.87288 552.839127s176.12737-56.478316 390.392338 11.643178c7.689123 2.439562 34.935674 1.162476 34.935674 1.162476s217.754442-69.867254 393.59324-12.225439C938.004929 728.860073 935.822217 235.408521 935.822217 235.408521z" p-id="10884" fill="#42bd56"></path></svg>