<?xml version="1.0" standalone="no"?><!DOCTYPE svg PUBLIC "-//W3C//DTD SVG 1.1//EN" "http://www.w3.org/Graphics/SVG/1.1/DTD/svg11.dtd"><svg t="1493947734260" class="icon" style="" viewBox="0 0 1174 1024" version="1.1" xmlns="http://www.w3.org/2000/svg" p-id="11901" xmlns:xlink="http://www.w3.org/1999/xlink" width="18.34375" height="16"><defs><style type="text/css"></style></defs><path d="M968.281688 9.886897 136.588888 9.886897C79.171443 9.886897 32.626759 56.561523 32.626759 114.137159l0 573.377854c0 57.575636 46.544684 104.250262 103.96213 104.250262l346.681203 0-51.981065-52.125131L162.578714 739.640143c-43.061672 0-77.970891-35.005263-77.970891-78.188403L84.607823 140.20043c0-43.181727 34.909219-78.188403 77.970891-78.188403l779.711735 0c43.061672 0 77.970891 35.005263 77.970891 78.188403l0 521.252723c0 43.181727-34.909219 78.188403-77.970891 78.188403l-112.905534 0-51.981065 52.125131 190.876425 0c57.416033 0 103.96213-46.674626 103.96213-104.250262L1072.242406 114.137159C1072.242406 56.561523 1025.697721 9.886897 968.281688 9.886897z" p-id="11902" fill="#42bd56"></path><path d="M835.623548 400.826086m-56.496552 0a40 40 0 1 0 112.993103 0 40 40 0 1 0-112.993103 0Z" p-id="11903" fill="#42bd56"></path><path d="M552.434582 400.826086m-56.496552 0a40 40 0 1 0 112.993103 0 40 40 0 1 0-112.993103 0Z" p-id="11904" fill="#42bd56"></path><path d="M269.245617 400.826086m-56.496552 0a40 40 0 1 0 112.993103 0 40 40 0 1 0-112.993103 0Z" p-id="11905" fill="#42bd56"></path><path d="M777.559217 791.766687 630.535415 939.198676 483.511614 791.766687 409.999713 791.766687 630.535415 1012.915377 851.071117 791.766687Z" p-id="11906" fill="#42bd56"></path></svg>